<svg width="257" height="257" viewBox="0 0 257 257" fill="none" xmlns="http://www.w3.org/2000/svg">
<g clip-path="url(#clip0_164_58)">
<path d="M257 128.5C257 199.469 199.469 257 128.5 257C57.5314 257 0 199.469 0 128.5C0 57.5314 57.5314 0 128.5 0C199.469 0 257 57.5314 257 128.5Z" fill="#58DF56"/>
<path d="M109.277 79.4453V174H96.7437V79.4453H109.277ZM157.659 174H137.917L138.046 163.804H157.659C164.413 163.804 170.041 162.397 174.543 159.583C179.046 156.726 182.423 152.743 184.674 147.634C186.969 142.482 188.116 136.464 188.116 129.58V123.8C188.116 118.389 187.467 113.583 186.168 109.383C184.869 105.14 182.964 101.569 180.453 98.668C177.942 95.724 174.868 93.4943 171.231 91.979C167.638 90.4637 163.503 89.7061 158.828 89.7061H137.527V79.4453H158.828C165.019 79.4453 170.669 80.4844 175.777 82.5625C180.886 84.5973 185.28 87.563 188.96 91.4595C192.684 95.3127 195.541 99.9884 197.533 105.487C199.524 110.942 200.52 117.09 200.52 123.93V129.58C200.52 136.421 199.524 142.59 197.533 148.088C195.541 153.543 192.662 158.198 188.896 162.051C185.172 165.904 180.67 168.87 175.388 170.948C170.149 172.983 164.239 174 157.659 174ZM144.605 79.4453V174H132.072V79.4453H144.605Z" fill="black"/>
<path d="M73.04 79.4453H76.04V76.4453H73.04V79.4453ZM73.04 174V177H76.04V174H73.04ZM60.5063 174H57.5063V177H60.5063V174ZM60.5063 79.4453V76.4453H57.5063V79.4453H60.5063ZM70.04 79.4453V174H76.04V79.4453H70.04ZM73.04 171H60.5063V177H73.04V171ZM63.5063 174V79.4453H57.5063V174H63.5063ZM60.5063 82.4453H73.04V76.4453H60.5063V82.4453ZM109.277 79.4453H112.277V76.4453H109.277V79.4453ZM109.277 174V177H112.277V174H109.277ZM96.7437 174H93.7437V177H96.7437V174ZM96.7437 79.4453V76.4453H93.7437V79.4453H96.7437ZM106.277 79.4453V174H112.277V79.4453H106.277ZM109.277 171H96.7437V177H109.277V171ZM99.7437 174V79.4453H93.7437V174H99.7437ZM96.7437 82.4453H109.277V76.4453H96.7437V82.4453ZM137.917 174L134.917 173.962L134.878 177H137.917V174ZM138.046 163.804V160.804H135.084L135.047 163.766L138.046 163.804ZM174.543 159.583L176.133 162.127L176.142 162.122L176.151 162.116L174.543 159.583ZM184.674 147.634L181.934 146.413L181.929 146.424L184.674 147.634ZM186.168 109.383L183.299 110.261L183.302 110.27L186.168 109.383ZM180.453 98.668L178.171 100.615L178.178 100.623L178.185 100.631L180.453 98.668ZM171.231 91.979L170.066 94.7433L170.078 94.7482L171.231 91.979ZM137.527 89.7061H134.527V92.7061H137.527V89.7061ZM137.527 79.4453V76.4453H134.527V79.4453H137.527ZM175.777 82.5625L174.647 85.3414L174.657 85.3455L174.667 85.3496L175.777 82.5625ZM188.96 91.4595L186.779 93.5193L186.791 93.5318L186.803 93.5441L188.96 91.4595ZM197.533 105.487L194.712 106.508L194.715 106.516L197.533 105.487ZM197.533 148.088L200.351 149.117L200.353 149.11L197.533 148.088ZM188.896 162.051L186.75 159.954L186.744 159.96L186.738 159.966L188.896 162.051ZM175.388 170.948L176.474 173.744L176.486 173.739L175.388 170.948ZM144.605 79.4453H147.605V76.4453H144.605V79.4453ZM144.605 174V177H147.605V174H144.605ZM132.072 174H129.072V177H132.072V174ZM132.072 79.4453V76.4453H129.072V79.4453H132.072ZM157.659 171H137.917V177H157.659V171ZM140.916 174.038L141.046 163.842L135.047 163.766L134.917 173.962L140.916 174.038ZM138.046 166.804H157.659V160.804H138.046V166.804ZM157.659 166.804C164.824 166.804 171.04 165.31 176.133 162.127L172.953 157.039C169.041 159.484 164.002 160.804 157.659 160.804V166.804ZM176.151 162.116C181.18 158.925 184.94 154.469 187.42 148.844L181.929 146.424C179.906 151.016 176.912 154.527 172.936 157.05L176.151 162.116ZM187.415 148.854C189.914 143.243 191.116 136.794 191.116 129.58H185.116C185.116 136.134 184.024 141.72 181.934 146.413L187.415 148.854ZM191.116 129.58V123.8H185.116V129.58H191.116ZM191.116 123.8C191.116 118.155 190.439 113.041 189.034 108.497L183.302 110.27C184.494 114.125 185.116 118.622 185.116 123.8H191.116ZM189.037 108.505C187.634 103.925 185.545 99.9669 182.721 96.7045L178.185 100.631C180.383 103.17 182.104 106.356 183.299 110.261L189.037 108.505ZM182.736 96.7211C179.913 93.4113 176.449 90.9032 172.385 89.2098L170.078 94.7482C173.287 96.0854 175.972 98.0366 178.171 100.615L182.736 96.7211ZM172.397 89.2147C168.369 87.5162 163.826 86.7061 158.828 86.7061V92.7061C163.181 92.7061 166.907 93.4113 170.066 94.7433L172.397 89.2147ZM158.828 86.7061H137.527V92.7061H158.828V86.7061ZM140.527 89.7061V79.4453H134.527V89.7061H140.527ZM137.527 82.4453H158.828V76.4453H137.527V82.4453ZM158.828 82.4453C164.679 82.4453 169.939 83.4261 174.647 85.3414L176.908 79.7836C171.399 77.5426 165.359 76.4453 158.828 76.4453V82.4453ZM174.667 85.3496C179.381 87.2271 183.407 89.9487 186.779 93.5193L191.141 89.3996C187.154 85.1773 182.391 81.9675 176.887 79.7754L174.667 85.3496ZM186.803 93.5441C190.207 97.0668 192.851 101.371 194.712 106.508L200.353 104.465C198.231 98.6064 195.161 93.5586 191.118 89.3748L186.803 93.5441ZM194.715 106.516C196.567 111.588 197.52 117.38 197.52 123.93H203.52C203.52 116.8 202.482 110.296 200.351 104.458L194.715 106.516ZM197.52 123.93V129.58H203.52V123.93H197.52ZM197.52 129.58C197.52 136.13 196.567 141.946 194.712 147.067L200.353 149.11C202.482 143.234 203.52 136.711 203.52 129.58H197.52ZM194.715 147.06C192.858 152.146 190.197 156.428 186.75 159.954L191.041 164.148C195.127 159.967 198.225 154.941 200.351 149.117L194.715 147.06ZM186.738 159.966C183.331 163.492 179.196 166.226 174.289 168.156L176.486 173.739C182.143 171.514 187.014 168.316 191.053 164.135L186.738 159.966ZM174.301 168.151C169.463 170.031 163.93 171 157.659 171V177C164.549 177 170.835 175.934 176.474 173.744L174.301 168.151ZM141.605 79.4453V174H147.605V79.4453H141.605ZM144.605 171H132.072V177H144.605V171ZM135.072 174V79.4453H129.072V174H135.072ZM132.072 82.4453H144.605V76.4453H132.072V82.4453Z" fill="black"/>
</g>
<defs>
<clipPath id="clip0_164_58">
<rect width="257" height="257" fill="white"/>
</clipPath>
</defs>
</svg>
