<svg width="163" height="113" viewBox="0 0 163 113" fill="none" xmlns="http://www.w3.org/2000/svg">
<g clip-path="url(#clip0_1104_136)">
<path d="M62.2773 7.44531V102H49.7437V7.44531H62.2773ZM110.659 102H90.9165L91.0464 91.8042H110.659C117.413 91.8042 123.041 90.3971 127.543 87.583C132.046 84.7256 135.423 80.7425 137.674 75.6338C139.969 70.4818 141.116 64.4639 141.116 57.5801V51.8003C141.116 46.3885 140.467 41.5828 139.168 37.3833C137.869 33.1405 135.964 29.5687 133.453 26.668C130.942 23.724 127.868 21.4943 124.231 19.979C120.638 18.4637 116.503 17.7061 111.828 17.7061H90.5269V7.44531H111.828C118.019 7.44531 123.669 8.48438 128.777 10.5625C133.886 12.5973 138.28 15.563 141.96 19.4595C145.684 23.3127 148.541 27.9884 150.533 33.4868C152.524 38.9419 153.52 45.0897 153.52 51.9302V57.5801C153.52 64.4206 152.524 70.59 150.533 76.0884C148.541 81.5435 145.662 86.1976 141.896 90.0508C138.172 93.904 133.67 96.8696 128.388 98.9478C123.149 100.983 117.239 102 110.659 102ZM97.6055 7.44531V102H85.0718V7.44531H97.6055Z" fill="#58DF56"/>
<path d="M26.04 7.44531H29.04V4.44531H26.04V7.44531ZM26.04 102V105H29.04V102H26.04ZM13.5063 102H10.5063V105H13.5063V102ZM13.5063 7.44531V4.44531H10.5063V7.44531H13.5063ZM23.04 7.44531V102H29.04V7.44531H23.04ZM26.04 99H13.5063V105H26.04V99ZM16.5063 102V7.44531H10.5063V102H16.5063ZM13.5063 10.4453H26.04V4.44531H13.5063V10.4453ZM62.2773 7.44531H65.2773V4.44531H62.2773V7.44531ZM62.2773 102V105H65.2773V102H62.2773ZM49.7437 102H46.7437V105H49.7437V102ZM49.7437 7.44531V4.44531H46.7437V7.44531H49.7437ZM59.2773 7.44531V102H65.2773V7.44531H59.2773ZM62.2773 99H49.7437V105H62.2773V99ZM52.7437 102V7.44531H46.7437V102H52.7437ZM49.7437 10.4453H62.2773V4.44531H49.7437V10.4453ZM90.9165 102L87.9167 101.962L87.878 105H90.9165V102ZM91.0464 91.8042V88.8042H88.0844L88.0466 91.766L91.0464 91.8042ZM127.543 87.583L129.133 90.127L129.142 90.1215L129.151 90.116L127.543 87.583ZM137.674 75.6338L134.934 74.4132L134.929 74.424L137.674 75.6338ZM139.168 37.3833L136.299 38.2614L136.302 38.2697L139.168 37.3833ZM133.453 26.668L131.171 28.6148L131.178 28.6232L131.185 28.6315L133.453 26.668ZM124.231 19.979L123.066 22.7433L123.078 22.7482L124.231 19.979ZM90.5269 17.7061H87.5269V20.7061H90.5269V17.7061ZM90.5269 7.44531V4.44531H87.5269V7.44531H90.5269ZM128.777 10.5625L127.647 13.3414L127.657 13.3455L127.667 13.3496L128.777 10.5625ZM141.96 19.4595L139.779 21.5193L139.791 21.5318L139.803 21.5441L141.96 19.4595ZM150.533 33.4868L147.712 34.5085L147.715 34.5156L150.533 33.4868ZM150.533 76.0884L153.351 77.1172L153.353 77.11L150.533 76.0884ZM141.896 90.0508L139.75 87.9537L139.744 87.9599L139.738 87.9661L141.896 90.0508ZM128.388 98.9478L129.474 101.744L129.486 101.739L128.388 98.9478ZM97.6055 7.44531H100.605V4.44531H97.6055V7.44531ZM97.6055 102V105H100.605V102H97.6055ZM85.0718 102H82.0718V105H85.0718V102ZM85.0718 7.44531V4.44531H82.0718V7.44531H85.0718ZM110.659 99H90.9165V105H110.659V99ZM93.9163 102.038L94.0461 91.8424L88.0466 91.766L87.9167 101.962L93.9163 102.038ZM91.0464 94.8042H110.659V88.8042H91.0464V94.8042ZM110.659 94.8042C117.824 94.8042 124.04 93.3103 129.133 90.127L125.953 85.039C122.041 87.484 117.002 88.8042 110.659 88.8042V94.8042ZM129.151 90.116C134.18 86.9246 137.94 82.4694 140.42 76.8436L134.929 74.424C132.906 79.0156 129.912 82.5266 125.936 85.05L129.151 90.116ZM140.415 76.8543C142.914 71.2432 144.116 64.7938 144.116 57.5801H138.116C138.116 64.134 137.024 69.7203 134.934 74.4132L140.415 76.8543ZM144.116 57.5801V51.8003H138.116V57.5801H144.116ZM144.116 51.8003C144.116 46.1546 143.439 41.0409 142.034 36.4969L136.302 38.2697C137.494 42.1248 138.116 46.6224 138.116 51.8003H144.116ZM142.037 36.5052C140.634 31.9248 138.545 27.9669 135.721 24.7045L131.185 28.6315C133.383 31.1705 135.104 34.3561 136.299 38.2614L142.037 36.5052ZM135.736 24.7211C132.913 21.4113 129.449 18.9032 125.385 17.2098L123.078 22.7482C126.287 24.0854 128.972 26.0366 131.171 28.6148L135.736 24.7211ZM125.397 17.2147C121.369 15.5162 116.826 14.7061 111.828 14.7061V20.7061C116.181 20.7061 119.907 21.4113 123.066 22.7433L125.397 17.2147ZM111.828 14.7061H90.5269V20.7061H111.828V14.7061ZM93.5269 17.7061V7.44531H87.5269V17.7061H93.5269ZM90.5269 10.4453H111.828V4.44531H90.5269V10.4453ZM111.828 10.4453C117.679 10.4453 122.939 11.4261 127.647 13.3414L129.908 7.78361C124.399 5.54262 118.359 4.44531 111.828 4.44531V10.4453ZM127.667 13.3496C132.381 15.2271 136.407 17.9487 139.779 21.5193L144.141 17.3996C140.154 13.1773 135.391 9.96752 129.887 7.77544L127.667 13.3496ZM139.803 21.5441C143.207 25.0668 145.851 29.3705 147.712 34.5085L153.353 32.4652C151.231 26.6064 148.161 21.5586 144.118 17.3748L139.803 21.5441ZM147.715 34.5156C149.567 39.5882 150.52 45.3796 150.52 51.9302H156.52C156.52 44.7998 155.482 38.2956 153.351 32.458L147.715 34.5156ZM150.52 51.9302V57.5801H156.52V51.9302H150.52ZM150.52 57.5801C150.52 64.1301 149.567 69.9463 147.712 75.0667L153.353 77.11C155.482 71.2337 156.52 64.711 156.52 57.5801H150.52ZM147.715 75.0596C145.858 80.1464 143.197 84.428 139.75 87.9537L144.041 92.1479C148.127 87.9672 151.225 82.9405 153.351 77.1172L147.715 75.0596ZM139.738 87.9661C136.331 91.4924 132.196 94.2256 127.289 96.1561L129.486 101.739C135.143 99.5136 140.014 96.3155 144.053 92.1354L139.738 87.9661ZM127.301 96.1513C122.463 98.0307 116.93 99 110.659 99V105C117.549 105 123.835 103.934 129.474 101.744L127.301 96.1513ZM94.6055 7.44531V102H100.605V7.44531H94.6055ZM97.6055 99H85.0718V105H97.6055V99ZM88.0718 102V7.44531H82.0718V102H88.0718ZM85.0718 10.4453H97.6055V4.44531H85.0718V10.4453Z" fill="#58DF56"/>
</g>
<defs>
<clipPath id="clip0_1104_136">
<rect width="163" height="113" fill="white"/>
</clipPath>
</defs>
</svg>